<svg xmlns="http://www.w3.org/2000/svg" version="1.1" xmlns:xlink="http://www.w3.org/1999/xlink" xmlns:svgjs="http://svgjs.dev/svgjs" width="1000" height="1000" viewBox="0 0 1000 1000"><rect width="1000" height="1000" fill="#000000"></rect><g transform="matrix(0.7,0,0,0.7,149.57605563665675,415.51706536496283)"><svg viewBox="0 0 396 96" data-background-color="#ffffff" preserveAspectRatio="xMidYMid meet" height="242" width="1000" xmlns="http://www.w3.org/2000/svg" xmlns:xlink="http://www.w3.org/1999/xlink"><g id="tight-bounds" transform="matrix(1,0,0,1,0.24008861730862918,-0.12289803530194376)"><svg viewBox="0 0 395.52 96.24588518349321" height="96.24588518349321" width="395.52"><g><svg viewBox="0 0 395.52 96.24588518349321" height="96.24588518349321" width="395.52"><g><svg viewBox="0 0 395.52 96.24588518349321" height="96.24588518349321" width="395.52"><g id="textblocktransform"><svg viewBox="0 0 395.52 96.24588518349321" height="96.24588518349321" width="395.52" id="textblock"><g><svg viewBox="0 0 395.52 96.24588518349321" height="96.24588518349321" width="395.52"><path d="M394.594 20.643C392.735 10.653 387.435 7.875 387.435 7.875 371.165-2.415 350.86-0.197 332.619 1.282 300.414 1.342 268.339 3.54 236.208 4.718 168.767 4.898 100.749 1.941 33.643 9.234 27.339 11.472-6.54 9.674 1.121 21.922 3.129 27.017 10.456 32.671 10.232 37.347 11.236 38.166 12.631 36.288 13.226 37.467 15.309 40.643 18.711 39.145 21.501 41.023 17.614 46.038 20.403 50.214 23.062 54.59 18.377 55.729 12.371 55.189 9.675 58.966 9.396 61.703 7.89 61.183 6.235 61.064 5.026 60.984 2.59 61.283 2.999 62.143 4.394 65.08-1.594 66.778 2.162 69.655-0.422 72.772 3.948 75.47 3.353 78.846 3.278 79.526 3.687 80.105 4.338 80.265 7.22 81.124 3.018 82.802 3.464 84.621 33.029 97.049 65.104 88.457 95.394 94.171 103.259 90.175 97.346 95.59 100.489 94.751 102.943 93.772 104.728 97.828 107.499 95.53 107.927 94.871 107.276 93.312 108.8 93.612 109.6 93.772 110.307 93.732 110.418 92.813 110.586 91.434 109.117 92.293 108.726 91.574 112.947 87.937 111.906 96.589 115.866 96.229 115.68 95.17 114.528 93.652 116.889 93.852 119.232 92.333 119.306 91.074 121.389 94.491 121.463 95.23 121.835 95.75 122.43 96.11 128.938 92.393 135.409 97.428 142.233 95.75 146.417 93.912 150.433 96.749 154.672 96.05 156.16 95.49 157.666 94.491 159.098 96.169 176.632 96.529 195.319 95.031 211.943 96.229 256.364 93.992 303.835 97.149 350.674 94.191 361.719 93.053 373.192 91.434 383.958 90.135 383.958 90.135 392.679 86.579 392.679 70.594S394.538 56.608 394.817 43.88C395.096 31.153 396.398 30.633 394.538 20.643Z" opacity="1" fill="#ffffff" data-fill-palette-color="tertiary"></path><g transform="matrix(1,0,0,1,55.76832,26.230666666666668)"><svg width="283.98335999999995" viewBox="2.75 -33.25 218.8800048828125 33.75" height="43.78455185015988" data-palette-color="#ffffff"><path d="M14.05 0.5Q8.35 0.5 5.55-3.5 2.75-7.5 2.75-16.35 2.75-25.2 5.45-29.23 8.15-33.25 14.1-33.25L14.1-33.25Q18-33.25 21.95-32L21.95-32 21.95-25.4 19.2-25.4 19.2-29.85Q17-30.65 14.1-30.65L14.1-30.65Q9.6-30.65 7.65-27.3 5.7-23.95 5.7-16.45 5.7-8.95 7.8-5.55 9.9-2.15 14.1-2.15L14.1-2.15Q17.25-2.15 21.6-3.5L21.6-3.5 22.25-0.9Q18.15 0.5 14.05 0.5L14.05 0.5ZM30.45 0L27.7 0 27.7-32.75 30.45-32.75 30.45-17.55 44.55-17.55 44.55-32.75 47.3-32.75 47.3 0 44.55 0 44.55-15 30.45-15 30.45 0ZM53.75 0L50.85 0 60.25-32.75 65.05-32.75 74.09 0 71.15 0 69.09-7.55 55.85-7.55 53.75 0ZM56.55-10.05L68.45-10.05 63.05-30.25 62.2-30.25 56.55-10.05ZM80.09 0L77.39 0 77.39-32.75 80.04-32.75 87.09-14.4 87.84-14.4 94.89-32.75 97.54-32.75 97.54 0 94.84 0 94.84-25.4 94.64-25.4 89.39-11.85 85.54-11.85 80.29-25.45 80.09-25.45 80.09 0ZM110.59 0L103.34 0 103.34-32.75 111.04-32.75Q116.54-32.75 119.22-30.78 121.89-28.8 121.89-24.25L121.89-24.25Q121.89-18.55 116.34-16.85L116.34-16.85Q119.64-16.1 121.22-14.35 122.79-12.6 122.79-9.25L122.79-9.25Q122.79-3.95 119.79-1.98 116.79 0 110.59 0L110.59 0ZM119.89-9.25L119.89-9.25Q119.89-15.35 111.59-15.35L111.59-15.35 106.09-15.35 106.09-2.45 110.59-2.45Q115.24-2.45 117.57-3.93 119.89-5.4 119.89-9.25ZM116.39-29.4L116.39-29.4Q114.24-30.3 111.04-30.3L111.04-30.3 106.09-30.3 106.09-17.8 111.44-17.8Q114.59-17.8 116.79-19.23 118.99-20.65 119.04-24.45 119.09-28.25 116.39-29.4ZM144.49 0L130.54 0 130.54-2.5 136.19-2.5 136.19-30.25 130.54-30.25 130.54-32.75 144.49-32.75 144.49-30.25 138.94-30.25 138.94-2.5 144.49-2.5 144.49 0ZM161.04-30.2L152.39-30.2 152.39-32.75 172.49-32.75 172.49-30.2 163.79-30.2 163.79 0 161.04 0 161.04-30.2ZM178.73 0L175.83 0 185.23-32.75 190.03-32.75 199.08 0 196.13 0 194.08-7.55 180.83-7.55 178.73 0ZM181.53-10.05L193.43-10.05 188.03-30.25 187.18-30.25 181.53-10.05ZM211.31-15.73Q206.83-16.8 204.76-18.88 202.68-20.95 202.68-24.9 202.68-28.85 205.41-31.05 208.13-33.25 212.43-33.25 216.73-33.25 221.18-31.7L221.18-31.7 220.48-29.15Q216.33-30.65 212.86-30.65 209.38-30.65 207.53-29.18 205.68-27.7 205.68-24.9 205.68-22.1 207.18-20.65 208.68-19.2 213.16-18.03 217.63-16.85 219.63-14.93 221.63-13 221.63-8.72 221.63-4.45 218.76-1.98 215.88 0.5 211.33 0.5L211.33 0.5Q207.93 0.5 202.73-0.95L202.73-0.95 203.38-3.5Q208.48-2.1 211.58-2.1 214.68-2.1 216.68-3.83 218.68-5.55 218.68-8.65 218.68-11.75 217.23-13.2 215.78-14.65 211.31-15.73Z" opacity="1" transform="matrix(1,0,0,1,0,0)" fill="#000000" class="wordmark-text-0" data-fill-palette-color="quaternary" id="text-0"></path></svg></g></svg></g></svg></g></svg></g><g></g></svg></g><defs></defs></svg><rect width="395.52" height="96.24588518349321" fill="none" stroke="none" visibility="hidden"></rect></g></svg></g></svg>